<mxfile host="app.diagrams.net" agent="Mozilla/5.0 (Windows NT 10.0; Win64; x64) AppleWebKit/537.36 (KHTML, like Gecko) Chrome/131.0.0.0 Safari/537.36" version="24.9.1">
  <diagram name="PÃ¡gina-1" id="GrvnrPJXnc8yTMUI44hV">
    <mxGraphModel dx="1434" dy="746" grid="1" gridSize="10" guides="1" tooltips="1" connect="1" arrows="1" fold="1" page="1" pageScale="1" pageWidth="827" pageHeight="1169" math="0" shadow="0">
      <root>
        <mxCell id="0" />
        <mxCell id="1" parent="0" />
        <mxCell id="hCrbw9FhNNtImvgFaIb2-7" value="" style="edgeStyle=orthogonalEdgeStyle;rounded=0;orthogonalLoop=1;jettySize=auto;html=1;" edge="1" parent="1" source="hCrbw9FhNNtImvgFaIb2-1" target="hCrbw9FhNNtImvgFaIb2-6">
          <mxGeometry relative="1" as="geometry" />
        </mxCell>
        <mxCell id="hCrbw9FhNNtImvgFaIb2-1" value="&lt;b&gt;Main control routine.&lt;/b&gt;" style="rounded=1;whiteSpace=wrap;html=1;fillColor=#dae8fc;strokeColor=#6c8ebf;" vertex="1" parent="1">
          <mxGeometry x="284" y="70" width="196" height="60" as="geometry" />
        </mxCell>
        <mxCell id="hCrbw9FhNNtImvgFaIb2-11" value="" style="edgeStyle=orthogonalEdgeStyle;rounded=0;orthogonalLoop=1;jettySize=auto;html=1;" edge="1" parent="1" source="hCrbw9FhNNtImvgFaIb2-6" target="hCrbw9FhNNtImvgFaIb2-10">
          <mxGeometry relative="1" as="geometry" />
        </mxCell>
        <mxCell id="hCrbw9FhNNtImvgFaIb2-6" value="Initialize device" style="shape=process;whiteSpace=wrap;html=1;backgroundOutline=1;rounded=1;" vertex="1" parent="1">
          <mxGeometry x="322" y="150" width="120" height="60" as="geometry" />
        </mxCell>
        <mxCell id="hCrbw9FhNNtImvgFaIb2-13" value="" style="edgeStyle=orthogonalEdgeStyle;rounded=0;orthogonalLoop=1;jettySize=auto;html=1;" edge="1" parent="1" source="hCrbw9FhNNtImvgFaIb2-10" target="hCrbw9FhNNtImvgFaIb2-12">
          <mxGeometry relative="1" as="geometry" />
        </mxCell>
        <mxCell id="hCrbw9FhNNtImvgFaIb2-10" value="Infinite Loop&lt;div&gt;START.&lt;/div&gt;" style="rounded=1;whiteSpace=wrap;html=1;" vertex="1" parent="1">
          <mxGeometry x="322" y="230" width="120" height="40" as="geometry" />
        </mxCell>
        <mxCell id="hCrbw9FhNNtImvgFaIb2-15" value="" style="edgeStyle=orthogonalEdgeStyle;rounded=0;orthogonalLoop=1;jettySize=auto;html=1;" edge="1" parent="1" source="hCrbw9FhNNtImvgFaIb2-12" target="hCrbw9FhNNtImvgFaIb2-14">
          <mxGeometry relative="1" as="geometry" />
        </mxCell>
        <mxCell id="hCrbw9FhNNtImvgFaIb2-12" value="Get initial ticks" style="shape=process;whiteSpace=wrap;html=1;backgroundOutline=1;rounded=1;" vertex="1" parent="1">
          <mxGeometry x="322" y="290" width="120" height="40" as="geometry" />
        </mxCell>
        <mxCell id="hCrbw9FhNNtImvgFaIb2-17" value="" style="edgeStyle=orthogonalEdgeStyle;rounded=0;orthogonalLoop=1;jettySize=auto;html=1;" edge="1" parent="1" source="hCrbw9FhNNtImvgFaIb2-14" target="hCrbw9FhNNtImvgFaIb2-16">
          <mxGeometry relative="1" as="geometry" />
        </mxCell>
        <mxCell id="hCrbw9FhNNtImvgFaIb2-14" value="Analog read update" style="shape=process;whiteSpace=wrap;html=1;backgroundOutline=1;rounded=1;" vertex="1" parent="1">
          <mxGeometry x="322" y="350" width="120" height="40" as="geometry" />
        </mxCell>
        <mxCell id="hCrbw9FhNNtImvgFaIb2-21" value="" style="edgeStyle=orthogonalEdgeStyle;rounded=0;orthogonalLoop=1;jettySize=auto;html=1;" edge="1" parent="1" source="hCrbw9FhNNtImvgFaIb2-16" target="hCrbw9FhNNtImvgFaIb2-20">
          <mxGeometry relative="1" as="geometry" />
        </mxCell>
        <mxCell id="hCrbw9FhNNtImvgFaIb2-16" value="UpdatePumpStatus ()" style="shape=process;whiteSpace=wrap;html=1;backgroundOutline=1;rounded=1;" vertex="1" parent="1">
          <mxGeometry x="302" y="420" width="160" height="30" as="geometry" />
        </mxCell>
        <mxCell id="hCrbw9FhNNtImvgFaIb2-23" value="" style="edgeStyle=orthogonalEdgeStyle;rounded=0;orthogonalLoop=1;jettySize=auto;html=1;" edge="1" parent="1" source="hCrbw9FhNNtImvgFaIb2-20" target="hCrbw9FhNNtImvgFaIb2-22">
          <mxGeometry relative="1" as="geometry" />
        </mxCell>
        <mxCell id="hCrbw9FhNNtImvgFaIb2-20" value="UpdateOperatingMode()" style="shape=process;whiteSpace=wrap;html=1;backgroundOutline=1;rounded=1;" vertex="1" parent="1">
          <mxGeometry x="297" y="470" width="170" height="30" as="geometry" />
        </mxCell>
        <mxCell id="hCrbw9FhNNtImvgFaIb2-27" value="" style="edgeStyle=orthogonalEdgeStyle;rounded=0;orthogonalLoop=1;jettySize=auto;html=1;" edge="1" parent="1" source="hCrbw9FhNNtImvgFaIb2-22" target="hCrbw9FhNNtImvgFaIb2-26">
          <mxGeometry relative="1" as="geometry" />
        </mxCell>
        <mxCell id="hCrbw9FhNNtImvgFaIb2-31" value="" style="edgeStyle=orthogonalEdgeStyle;rounded=0;orthogonalLoop=1;jettySize=auto;html=1;" edge="1" parent="1" source="hCrbw9FhNNtImvgFaIb2-22" target="hCrbw9FhNNtImvgFaIb2-30">
          <mxGeometry relative="1" as="geometry" />
        </mxCell>
        <mxCell id="hCrbw9FhNNtImvgFaIb2-33" value="" style="edgeStyle=orthogonalEdgeStyle;rounded=0;orthogonalLoop=1;jettySize=auto;html=1;" edge="1" parent="1" source="hCrbw9FhNNtImvgFaIb2-22" target="hCrbw9FhNNtImvgFaIb2-32">
          <mxGeometry relative="1" as="geometry" />
        </mxCell>
        <mxCell id="hCrbw9FhNNtImvgFaIb2-22" value="Operating mode?" style="rhombus;whiteSpace=wrap;html=1;rounded=1;" vertex="1" parent="1">
          <mxGeometry x="302" y="520" width="160" height="80" as="geometry" />
        </mxCell>
        <mxCell id="hCrbw9FhNNtImvgFaIb2-47" style="edgeStyle=orthogonalEdgeStyle;rounded=0;orthogonalLoop=1;jettySize=auto;html=1;exitX=0.5;exitY=1;exitDx=0;exitDy=0;endArrow=none;endFill=0;" edge="1" parent="1" source="hCrbw9FhNNtImvgFaIb2-26">
          <mxGeometry relative="1" as="geometry">
            <mxPoint x="380" y="710" as="targetPoint" />
            <Array as="points">
              <mxPoint x="180" y="710" />
              <mxPoint x="380" y="710" />
            </Array>
          </mxGeometry>
        </mxCell>
        <mxCell id="hCrbw9FhNNtImvgFaIb2-26" value="ManualRoutine ()" style="shape=process;whiteSpace=wrap;html=1;backgroundOutline=1;rounded=1;" vertex="1" parent="1">
          <mxGeometry x="120" y="630" width="120" height="60" as="geometry" />
        </mxCell>
        <mxCell id="hCrbw9FhNNtImvgFaIb2-48" style="edgeStyle=orthogonalEdgeStyle;rounded=0;orthogonalLoop=1;jettySize=auto;html=1;exitX=0.5;exitY=1;exitDx=0;exitDy=0;endArrow=none;endFill=0;" edge="1" parent="1" source="hCrbw9FhNNtImvgFaIb2-30">
          <mxGeometry relative="1" as="geometry">
            <mxPoint x="380" y="710" as="targetPoint" />
            <Array as="points">
              <mxPoint x="580" y="710" />
              <mxPoint x="391" y="710" />
            </Array>
          </mxGeometry>
        </mxCell>
        <mxCell id="hCrbw9FhNNtImvgFaIb2-30" value="AnalogRoutine()" style="shape=process;whiteSpace=wrap;html=1;backgroundOutline=1;rounded=1;" vertex="1" parent="1">
          <mxGeometry x="520" y="630" width="120" height="60" as="geometry" />
        </mxCell>
        <mxCell id="hCrbw9FhNNtImvgFaIb2-42" style="edgeStyle=orthogonalEdgeStyle;rounded=0;orthogonalLoop=1;jettySize=auto;html=1;exitX=0.5;exitY=1;exitDx=0;exitDy=0;entryX=0.5;entryY=0;entryDx=0;entryDy=0;" edge="1" parent="1" source="hCrbw9FhNNtImvgFaIb2-32" target="hCrbw9FhNNtImvgFaIb2-38">
          <mxGeometry relative="1" as="geometry" />
        </mxCell>
        <mxCell id="hCrbw9FhNNtImvgFaIb2-32" value="ImpulseRoutine()" style="shape=process;whiteSpace=wrap;html=1;backgroundOutline=1;rounded=1;" vertex="1" parent="1">
          <mxGeometry x="322" y="630" width="120" height="60" as="geometry" />
        </mxCell>
        <mxCell id="hCrbw9FhNNtImvgFaIb2-34" value="MANUAL" style="text;html=1;align=center;verticalAlign=middle;resizable=0;points=[];autosize=1;strokeColor=none;fillColor=none;" vertex="1" parent="1">
          <mxGeometry x="170" y="540" width="70" height="30" as="geometry" />
        </mxCell>
        <mxCell id="hCrbw9FhNNtImvgFaIb2-35" value="ANALOG" style="text;html=1;align=center;verticalAlign=middle;resizable=0;points=[];autosize=1;strokeColor=none;fillColor=none;" vertex="1" parent="1">
          <mxGeometry x="520" y="540" width="70" height="30" as="geometry" />
        </mxCell>
        <mxCell id="hCrbw9FhNNtImvgFaIb2-36" value="IMPULSE" style="text;html=1;align=center;verticalAlign=middle;resizable=0;points=[];autosize=1;strokeColor=none;fillColor=none;" vertex="1" parent="1">
          <mxGeometry x="374" y="590" width="80" height="30" as="geometry" />
        </mxCell>
        <mxCell id="hCrbw9FhNNtImvgFaIb2-38" value="Pump.external_stop == ACTIVE ?" style="rhombus;whiteSpace=wrap;html=1;rounded=1;" vertex="1" parent="1">
          <mxGeometry x="247" y="750" width="270" height="80" as="geometry" />
        </mxCell>
      </root>
    </mxGraphModel>
  </diagram>
</mxfile>
